<?xml version="1.0" encoding="UTF-8" standalone="no"?>
<!DOCTYPE svg PUBLIC "-//W3C//DTD SVG 1.1//EN" "http://www.w3.org/Graphics/SVG/1.1/DTD/svg11.dtd">
<svg width="100%" height="100%" viewBox="0 0 512 416" version="1.1" xmlns="http://www.w3.org/2000/svg" xmlns:xlink="http://www.w3.org/1999/xlink" xml:space="preserve" xmlns:serif="http://www.serif.com/" style="fill-rule:evenodd;clip-rule:evenodd;stroke-linejoin:round;stroke-miterlimit:2;">
    <g transform="matrix(1,0,0,1,-96,-112)">
        <path d="M112,112C103.2,112 96,119.2 96,128C96,136.8 103.2,144 112,144L368,144C376.8,144 384,136.8 384,128C384,119.2 376.8,112 368,112L112,112ZM112,240C103.2,240 96,247.2 96,256C96,264.8 103.2,272 112,272L528,272C536.8,272 544,264.8 544,256C544,247.2 536.8,240 528,240L112,240ZM96,384C96,392.8 103.2,400 112,400L368,400C376.8,400 384,392.8 384,384C384,375.2 376.8,368 368,368L112,368C103.2,368 96,375.2 96,384ZM112,496C103.2,496 96,503.2 96,512C96,520.8 103.2,528 112,528L528,528C536.8,528 544,520.8 544,512C544,503.2 536.8,496 528,496L112,496Z" style="fill:rgb(245,73,82);fill-rule:nonzero;"/>
    </g>
</svg>
