<?xml version="1.0" encoding="UTF-8" standalone="no"?>
<!DOCTYPE svg PUBLIC "-//W3C//DTD SVG 1.1//EN" "http://www.w3.org/Graphics/SVG/1.1/DTD/svg11.dtd">
<svg width="100%" height="100%" viewBox="0 0 512 384" version="1.1" xmlns="http://www.w3.org/2000/svg" xmlns:xlink="http://www.w3.org/1999/xlink" xml:space="preserve" xmlns:serif="http://www.serif.com/" style="fill-rule:evenodd;clip-rule:evenodd;stroke-linejoin:round;stroke-miterlimit:2;">
    <g transform="matrix(1,0,0,1,-64,-128)">
        <path d="M224,160L224,224L544,224L544,192C544,174.3 529.7,160 512,160L224,160ZM192,160L128,160C110.3,160 96,174.3 96,192L96,224L192,224L192,160ZM96,256L96,448C96,465.7 110.3,480 128,480L512,480C529.7,480 544,465.7 544,448L544,256L96,256ZM64,192C64,156.7 92.7,128 128,128L512,128C547.3,128 576,156.7 576,192L576,448C576,483.3 547.3,512 512,512L128,512C92.7,512 64,483.3 64,448L64,192Z" style="fill:rgb(245,73,82);fill-rule:nonzero;"/>
    </g>
</svg>
