<?xml version="1.0" encoding="UTF-8" standalone="no"?>
<!DOCTYPE svg PUBLIC "-//W3C//DTD SVG 1.1//EN" "http://www.w3.org/Graphics/SVG/1.1/DTD/svg11.dtd">
<svg width="100%" height="100%" viewBox="0 0 640 640" version="1.1" xmlns="http://www.w3.org/2000/svg" xmlns:xlink="http://www.w3.org/1999/xlink" xml:space="preserve" xmlns:serif="http://www.serif.com/" style="fill-rule:evenodd;clip-rule:evenodd;stroke-linejoin:round;stroke-miterlimit:2;">
    <g transform="matrix(1.25,0,0,1.25,-80,-80)">
        <path d="M455.9,455.6L432,384L208,384L184.1,455.6C218.9,490.5 266.9,512 320,512C373.1,512 421.1,490.5 455.9,455.6ZM64,320C64,178.6 178.6,64 320,64C461.4,64 576,178.6 576,320C576,461.4 461.4,576 320,576C178.6,576 64,461.4 64,320ZM320,336C359.8,336 392,303.8 392,264C392,224.2 359.8,192 320,192C280.2,192 248,224.2 248,264C248,303.8 280.2,336 320,336Z" style="fill:rgb(52,22,113);fill-rule:nonzero;"/>
    </g>
</svg>
