<?xml version="1.0" encoding="UTF-8" standalone="no"?>
<!DOCTYPE svg PUBLIC "-//W3C//DTD SVG 1.1//EN" "http://www.w3.org/Graphics/SVG/1.1/DTD/svg11.dtd">
<svg width="100%" height="100%" viewBox="0 0 512 512" version="1.1" xmlns="http://www.w3.org/2000/svg" xmlns:xlink="http://www.w3.org/1999/xlink" xml:space="preserve" xmlns:serif="http://www.serif.com/" style="fill-rule:evenodd;clip-rule:evenodd;stroke-linejoin:round;stroke-miterlimit:2;">
    <g transform="matrix(1,0,0,1,-64,-64)">
        <path d="M320,576C178.6,576 64,461.4 64,320C64,178.6 178.6,64 320,64C461.4,64 576,178.6 576,320C576,461.4 461.4,576 320,576ZM320,96C196.3,96 96,196.3 96,320C96,443.7 196.3,544 320,544C443.7,544 544,443.7 544,320C544,196.3 443.7,96 320,96ZM403.1,230.6C408.3,223.5 418.3,221.9 425.4,227.1C432.5,232.3 434.1,242.3 428.9,249.4L300.9,425.4C298.1,429.2 293.9,431.6 289.2,431.9C284.5,432.2 279.9,430.6 276.6,427.3L212.6,363.3C206.4,357.1 206.4,346.9 212.6,340.7C218.8,334.5 229,334.5 235.2,340.7L285.9,391.4L402.9,230.6L403.1,230.6Z" style="fill:rgb(245,73,82);fill-rule:nonzero;"/>
    </g>
</svg>
