<?xml version="1.0" encoding="UTF-8" standalone="no"?>
<!DOCTYPE svg PUBLIC "-//W3C//DTD SVG 1.1//EN" "http://www.w3.org/Graphics/SVG/1.1/DTD/svg11.dtd">
<svg width="100%" height="100%" viewBox="0 0 640 640" version="1.1" xmlns="http://www.w3.org/2000/svg" xmlns:xlink="http://www.w3.org/1999/xlink" xml:space="preserve" xmlns:serif="http://www.serif.com/" style="fill-rule:evenodd;clip-rule:evenodd;stroke-linejoin:round;stroke-miterlimit:2;">
    <g transform="matrix(1.25,0,0,1.25,-80,-80)">
        <path d="M320,96C443.7,96 544,196.3 544,320C544,443.7 443.7,544 320,544C196.3,544 96,443.7 96,320C96,196.3 196.3,96 320,96ZM320,576C461.4,576 576,461.4 576,320C576,178.6 461.4,64 320,64C178.6,64 64,178.6 64,320C64,461.4 178.6,576 320,576ZM272,225.3C263.2,225.3 256,232.5 256,241.3C256,250.1 263.2,257.3 272,257.3L329.8,257.3C342,257.3 352,267.2 352,279.5C352,288.2 346.9,296 339.1,299.7L302.7,316.4C274.3,329.4 256,357.8 256,389.1L256,400C256,408.8 263.2,416 272,416L368,416C376.8,416 384,408.8 384,400C384,391.2 376.8,384 368,384L288.3,384C290.1,367.3 300.5,352.5 316,345.4L352.4,328.7C371.7,319.9 384,300.6 384,279.5C384,249.6 359.7,225.3 329.8,225.3L272,225.3Z" style="fill:rgb(245,73,82);fill-rule:nonzero;"/>
    </g>
</svg>
