<?xml version="1.0" encoding="UTF-8" standalone="no"?>
<!DOCTYPE svg PUBLIC "-//W3C//DTD SVG 1.1//EN" "http://www.w3.org/Graphics/SVG/1.1/DTD/svg11.dtd">
<svg width="100%" height="100%" viewBox="0 0 512 512" version="1.1" xmlns="http://www.w3.org/2000/svg" xmlns:xlink="http://www.w3.org/1999/xlink" xml:space="preserve" xmlns:serif="http://www.serif.com/" style="fill-rule:evenodd;clip-rule:evenodd;stroke-linejoin:round;stroke-miterlimit:2;">
    <g transform="matrix(1,0,0,1,-144,-64)">
        <path d="M208,96C190.3,96 176,110.3 176,128L176,512C176,529.7 190.3,544 208,544L432,544C449.7,544 464,529.7 464,512L464,128C464,110.3 449.7,96 432,96L208,96ZM144,128C144,92.7 172.7,64 208,64L432,64C467.3,64 496,92.7 496,128L496,512C496,547.3 467.3,576 432,576L208,576C172.7,576 144,547.3 144,512L144,128ZM288,464L352,464C360.8,464 368,471.2 368,480C368,488.8 360.8,496 352,496L288,496C279.2,496 272,488.8 272,480C272,471.2 279.2,464 288,464Z" style="fill:rgb(245,73,82);fill-rule:nonzero;"/>
    </g>
</svg>
