<?xml version="1.0" encoding="UTF-8" standalone="no"?>
<!DOCTYPE svg PUBLIC "-//W3C//DTD SVG 1.1//EN" "http://www.w3.org/Graphics/SVG/1.1/DTD/svg11.dtd">
<svg width="100%" height="100%" viewBox="0 0 512 480" version="1.1" xmlns="http://www.w3.org/2000/svg" xmlns:xlink="http://www.w3.org/1999/xlink" xml:space="preserve" xmlns:serif="http://www.serif.com/" style="fill-rule:evenodd;clip-rule:evenodd;stroke-linejoin:round;stroke-miterlimit:2;">
    <g transform="matrix(1,0,0,1,-64,-96)">
        <path d="M80,96C71.2,96 64,103.2 64,112C64,120.8 71.2,128 80,128L96,128L96,384C96,419.3 124.7,448 160,448L304,448L304,495.7L230.8,546.9C223.6,552 221.8,561.9 226.9,569.2C232,576.5 241.9,578.2 249.2,573.1L320,523.5L390.8,573.1C398,578.2 408,576.4 413.1,569.2C418.2,562 416.4,552 409.2,546.9L336,495.7L336,448L480,448C515.3,448 544,419.3 544,384L544,128L560,128C568.8,128 576,120.8 576,112C576,103.2 568.8,96 560,96L80,96ZM512,128L512,384C512,401.7 497.7,416 480,416L160,416C142.3,416 128,401.7 128,384L128,128L512,128Z" style="fill:rgb(245,73,82);fill-rule:nonzero;"/>
    </g>
</svg>
